<?xml version="1.0" standalone="no"?>
<!DOCTYPE svg PUBLIC "-//W3C//DTD SVG 20010904//EN"
 "http://www.w3.org/TR/2001/REC-SVG-20010904/DTD/svg10.dtd">
<svg version="1.0" xmlns="http://www.w3.org/2000/svg"
 width="640.000000pt" height="640.000000pt" viewBox="0 0 640.000000 640.000000"
 preserveAspectRatio="xMidYMid meet">
<metadata>
Created by potrace 1.16, written by Peter Selinger 2001-2019
</metadata>
<g transform="translate(0.000000,640.000000) scale(0.100000,-0.100000)"
fill="#000000" stroke="none">
<path d="M2818 5535 c-75 -13 -163 -31 -195 -40 -140 -39 -201 -58 -248 -77
-131 -53 -155 -63 -220 -96 -38 -19 -98 -50 -133 -71 -82 -47 -89 -51 -141
-86 -24 -17 -51 -34 -60 -40 -9 -5 -18 -13 -21 -16 -3 -3 -31 -25 -62 -48 -32
-24 -58 -47 -58 -52 0 -5 -5 -9 -10 -9 -12 0 -69 -52 -158 -144 -37 -38 -77
-79 -89 -91 -13 -12 -23 -27 -23 -34 0 -6 -4 -11 -9 -11 -5 0 -28 -26 -52 -57
-23 -32 -45 -60 -48 -63 -3 -3 -10 -12 -16 -21 -5 -9 -23 -36 -40 -60 -91
-135 -176 -301 -255 -499 -39 -97 -89 -286 -117 -445 -26 -145 -26 -606 0
-750 60 -333 167 -616 332 -883 42 -67 154 -222 186 -257 75 -80 107 -116 130
-141 15 -16 54 -54 88 -84 34 -30 72 -65 84 -76 24 -23 233 -176 257 -188 8
-4 33 -18 55 -31 250 -151 541 -254 860 -305 184 -29 506 -29 690 1 195 31
431 96 560 154 17 7 59 26 95 41 36 15 76 35 90 44 14 9 36 21 50 28 14 7 43
24 65 37 22 14 48 28 58 32 9 3 17 8 17 12 0 4 15 15 33 26 40 23 180 129 226
169 45 41 218 214 256 257 42 46 147 187 170 226 11 18 22 33 26 33 4 0 9 8
12 18 4 9 17 35 31 57 23 36 119 227 151 300 52 116 122 363 145 505 29 185
32 228 28 445 -4 229 -15 328 -55 485 -8 36 -19 81 -23 100 -4 19 -16 58 -25
85 -10 28 -27 75 -37 105 -28 77 -99 240 -118 270 -9 14 -21 36 -28 50 -7 14
-23 43 -37 65 -14 22 -28 47 -32 55 -19 42 -176 248 -248 324 -22 24 -52 56
-66 72 -15 16 -54 54 -88 84 -34 30 -72 64 -84 76 -12 12 -40 34 -62 49 -22
16 -45 34 -50 39 -6 6 -18 16 -26 21 -9 6 -36 23 -60 40 -171 115 -429 239
-614 294 -269 79 -379 95 -685 98 -241 2 -278 0 -402 -22z m1022 -1185 l0
-240 -165 0 c-256 0 -265 -8 -265 -225 l0 -135 220 0 c121 0 220 -3 220 -7 0
-5 -11 -127 -25 -273 -14 -146 -25 -268 -25 -272 0 -5 -92 -8 -205 -8 l-205 0
0 -695 0 -695 -280 0 -280 0 0 695 0 695 -140 0 -140 0 0 280 0 280 134 0 133
0 6 183 c6 203 18 262 73 375 46 95 120 169 216 216 111 55 176 64 471 65
l257 1 0 -240z"/>
</g>
</svg>
