<?xml version="1.0" encoding="iso-8859-1"?>
<!-- Generator: Adobe Illustrator 19.0.0, SVG Export Plug-In . SVG Version: 6.00 Build 0)  -->
<svg version="1.1" id="Capa_1" xmlns="http://www.w3.org/2000/svg" xmlns:xlink="http://www.w3.org/1999/xlink" x="0px" y="0px"
	 viewBox="0 0 512 512" style="enable-background:new 0 0 512 512;" xml:space="preserve">
<g>
	<g>
		<path d="M472,416h-32V176c0-8.832-7.168-16-16-16H184v-16c0-26.464,21.536-48,48-48h16c8.832,0,16-7.168,16-16V16
			c0-8.832-7.168-16-16-16h-16C152.608,0,88,64.608,88,144v16H40c-8.832,0-16,7.168-16,16v64c0,8.832,7.168,16,16,16h48v160H40
			c-8.832,0-16,7.168-16,16v64c0,8.832,7.168,16,16,16h176c8.832,0,16-7.168,16-16v-64c0-8.832-7.168-16-16-16h-32V256h160v160h-48
			c-8.832,0-16,7.168-16,16v64c0,8.832,7.168,16,16,16h176c8.832,0,16-7.168,16-16v-64C488,423.168,480.832,416,472,416z M456,480
			H312v-32h48c8.832,0,16-7.168,16-16V240c0-8.832-7.168-16-16-16H168c-8.832,0-16,7.168-16,16v192c0,8.832,7.168,16,16,16h32v32H56
			v-32h48c8.832,0,16-7.168,16-16V240c0-8.832-7.168-16-16-16H56v-32h48c8.832,0,16-7.168,16-16v-32c0-61.76,50.24-112,112-112v32
			c-44.096,0-80,35.904-80,80v32c0,8.832,7.168,16,16,16h240v240c0,8.832,7.168,16,16,16h32V480z"/>
	</g>
</g>
<g>
	<g>
		<path d="M392,0c-26.464,0-48,21.536-48,48s21.536,48,48,48s48-21.536,48-48S418.464,0,392,0z M392,64c-8.8,0-16-7.168-16-16
			c0-8.832,7.2-16,16-16s16,7.168,16,16C408,56.832,400.8,64,392,64z"/>
	</g>
</g>
<g>
</g>
<g>
</g>
<g>
</g>
<g>
</g>
<g>
</g>
<g>
</g>
<g>
</g>
<g>
</g>
<g>
</g>
<g>
</g>
<g>
</g>
<g>
</g>
<g>
</g>
<g>
</g>
<g>
</g>
</svg>
