<?xml version="1.0" standalone="no"?>
<!DOCTYPE svg PUBLIC "-//W3C//DTD SVG 20010904//EN"
 "http://www.w3.org/TR/2001/REC-SVG-20010904/DTD/svg10.dtd">
<svg version="1.0" xmlns="http://www.w3.org/2000/svg"
 width="400.000000pt" height="400.000000pt" viewBox="0 0 400.000000 400.000000"
 preserveAspectRatio="xMidYMid meet">
<metadata>
Created by potrace 1.16, written by Peter Selinger 2001-2019
</metadata>
<g transform="translate(0.000000,400.000000) scale(0.100000,-0.100000)"
fill="#000000" stroke="none">
<path d="M1736 3685 c-631 -102 -1159 -552 -1356 -1154 -64 -197 -74 -272 -74
-536 0 -264 10 -339 74 -536 166 -507 582 -923 1088 -1089 198 -64 273 -74
537 -74 264 0 339 10 537 74 506 166 922 582 1088 1089 64 197 74 272 74 536
0 211 -2 252 -22 342 -73 336 -229 626 -462 861 -238 240 -531 400 -868 473
-128 28 -481 36 -616 14z m1621 -1350 c29 -20 46 -75 34 -107 -13 -33 -58 -68
-88 -68 -91 0 -136 115 -66 170 31 24 89 26 120 5z m-2083 -16 c53 -24 52
-104 -1 -128 -34 -16 -47 -14 -77 10 -36 28 -36 80 0 108 31 24 43 26 78 10z
m-194 -59 l0 -60 -31 0 c-44 0 -69 -17 -69 -45 l0 -25 170 0 170 0 0 -170 0
-170 30 0 c30 0 30 -1 30 -55 l0 -55 -135 0 -135 0 0 55 c0 52 1 55 25 55 l25
0 0 115 0 115 -90 0 -90 0 0 -115 0 -115 36 0 35 0 -3 -52 -3 -53 -137 -3
-138 -3 0 56 c0 52 1 55 25 55 l25 0 0 114 0 115 -27 3 c-26 3 -28 7 -31 56
-3 52 -3 52 26 52 27 0 30 4 36 42 12 77 47 113 136 142 8 2 39 5 68 5 l52 1
0 -60z m1147 -131 c70 -26 122 -110 123 -196 l0 -53 -145 0 c-97 0 -145 -4
-145 -11 0 -6 13 -24 29 -40 24 -23 38 -29 74 -29 25 0 65 9 90 19 l44 19 27
-55 26 -54 -57 -26 c-77 -36 -197 -38 -258 -6 -93 49 -130 109 -130 213 0 64
4 82 28 122 29 49 63 78 112 96 40 14 146 15 182 1z m533 -64 l0 -75 -35 0
c-79 0 -116 -45 -119 -142 -1 -53 -1 -53 32 -56 32 -3 32 -4 32 -58 l0 -54
-140 0 -140 0 0 55 c0 54 0 55 30 55 l30 0 0 115 0 115 -30 0 c-30 0 -30 1
-30 55 l0 55 89 0 c99 0 121 -11 121 -57 l0 -26 22 28 c29 37 77 65 111 65
l27 0 0 -75z m410 0 l0 -75 -35 0 c-79 0 -119 -49 -120 -145 0 -49 0 -50 33
-53 l33 -3 -3 -52 -3 -52 -137 -3 -138 -3 0 56 c0 54 0 55 30 55 l30 0 0 115
0 115 -30 0 c-30 0 -30 1 -30 55 l0 55 89 0 c99 0 121 -11 121 -57 l0 -26 22
28 c29 37 77 65 111 65 l27 0 0 -75z m-1570 10 c0 -42 -3 -55 -15 -55 -20 0
-19 -10 15 -115 15 -49 30 -83 33 -75 20 57 57 176 57 183 0 4 -7 7 -15 7 -12
0 -15 13 -15 55 l0 55 120 0 120 0 0 -55 c0 -53 -1 -55 -27 -55 -26 0 -30 -7
-62 -93 -18 -50 -47 -127 -63 -170 l-30 -78 -90 3 -90 3 -62 165 c-57 154 -63
165 -89 168 -26 3 -27 6 -27 58 l0 54 120 0 120 0 0 -55z"/>
</g>
</svg>
