<?xml version="1.0" encoding="UTF-8"?>
<!DOCTYPE svg PUBLIC "-//W3C//DTD SVG 1.1//EN" "http://www.w3.org/Graphics/SVG/1.1/DTD/svg11.dtd">
<svg xmlns="http://www.w3.org/2000/svg" version="1.1" width="616px" height="556px" style="shape-rendering:geometricPrecision; text-rendering:geometricPrecision; image-rendering:optimizeQuality; fill-rule:evenodd; clip-rule:evenodd" xmlns:xlink="http://www.w3.org/1999/xlink">
<g><path style="opacity:0.902" fill="#fefffe" d="M 211.5,0.5 C 319.191,-0.261922 426.857,0.904745 534.5,4C 554.553,18.3836 572.386,35.2169 588,54.5C 595.052,63.2183 601.719,72.2183 608,81.5C 610.557,85.9447 612.557,90.6113 614,95.5C 614.667,105.833 614.667,116.167 614,126.5C 609.272,156.898 592.105,176.398 562.5,185C 534.555,187.278 513.389,176.445 499,152.5C 496.072,146.048 493.738,139.382 492,132.5C 483.08,169.546 459.58,187.046 421.5,185C 393.139,178.638 376.306,161.138 371,132.5C 360.7,169.791 336.2,187.291 297.5,185C 268.783,178.616 250.949,161.116 244,132.5C 234.698,172.072 209.864,189.238 169.5,184C 144.305,176.137 128.805,159.304 123,133.5C 115.62,161.547 97.7863,178.714 69.5,185C 42.7883,186.394 22.6216,175.56 9,152.5C 2.09837,139.537 -0.734966,125.703 0.5,111C -1.05115,100.31 1.11552,90.4763 7,81.5C 23.5802,56.91 43.0802,34.7433 65.5,15C 70.5,11.3333 75.5,7.66667 80.5,4C 124.315,2.33129 167.981,1.16463 211.5,0.5 Z"/></g>
<g><path style="opacity:0.902" fill="#fefefe" d="M 120.5,169.5 C 142.005,201.387 171.338,211.554 208.5,200C 223.726,193.774 235.559,183.607 244,169.5C 261.75,196.768 286.917,208.268 319.5,204C 342.303,200.853 359.47,189.353 371,169.5C 393.586,202.139 423.752,211.972 461.5,199C 475.406,192.478 486.24,182.645 494,169.5C 509.998,194.582 532.831,205.915 562.5,203.5C 563.947,210.754 564.78,218.087 565,225.5C 568.728,290.136 569.395,354.802 567,419.5C 565.827,445.055 562.827,470.388 558,495.5C 555.494,508.69 550.827,521.023 544,532.5C 542.786,534.049 541.286,535.215 539.5,536C 489.233,544.903 438.566,549.903 387.5,551C 297.302,554.68 207.302,552.014 117.5,543C 102.666,541.195 87.9995,538.528 73.5,535C 69.4553,530.418 66.2886,525.251 64,519.5C 55.3345,492.175 50.3345,464.175 49,435.5C 45.1126,359.447 45.9459,283.447 51.5,207.5C 51.8333,206.167 52.1667,204.833 52.5,203.5C 82.1651,206.001 104.832,194.667 120.5,169.5 Z M 182.5,236.5 C 210.286,231.706 233.62,239.539 252.5,260C 288.325,256.547 324.158,256.714 360,260.5C 364.709,257.804 368.875,254.304 372.5,250C 381.528,242.655 391.862,238.322 403.5,237C 430.518,231.78 452.685,239.613 470,260.5C 483.172,279.514 493.172,300.181 500,322.5C 510.289,357.657 519.956,392.991 529,428.5C 542.763,477.396 524.597,498.23 474.5,491C 430.892,483.895 407.225,458.395 403.5,414.5C 339.497,423.81 275.497,423.81 211.5,414.5C 207.767,458.402 184.101,483.902 140.5,491C 128.79,491.861 117.123,491.527 105.5,490C 92.7098,487.266 85.2098,479.433 83,466.5C 81.7941,451.938 83.1275,437.605 87,423.5C 94.5109,395.123 102.178,366.79 110,338.5C 115.897,317.807 123.564,297.807 133,278.5C 139.993,265.176 149.493,254.009 161.5,245C 168.182,241.058 175.182,238.225 182.5,236.5 Z"/></g>
<g><path style="opacity:0.902" fill="#fefefe" d="M 306.5,294.5 C 330.53,314.53 352.196,336.863 371.5,361.5C 359.845,362.39 348.178,362.39 336.5,361.5C 336.666,371.839 336.5,382.172 336,392.5C 332.25,393.15 328.416,393.483 324.5,393.5C 309.511,392.943 294.511,392.776 279.5,393C 278.513,382.582 278.18,372.082 278.5,361.5C 266.824,362.44 255.157,362.44 243.5,361.5C 250.058,351.77 257.558,342.77 266,334.5C 279.395,320.938 292.895,307.604 306.5,294.5 Z"/></g>
</svg>
