<?xml version="1.0" encoding="UTF-8"?>
<!DOCTYPE svg PUBLIC "-//W3C//DTD SVG 1.1//EN" "http://www.w3.org/Graphics/SVG/1.1/DTD/svg11.dtd">
<svg xmlns="http://www.w3.org/2000/svg" version="1.1" width="616px" height="556px" style="shape-rendering:geometricPrecision; text-rendering:geometricPrecision; image-rendering:optimizeQuality; fill-rule:evenodd; clip-rule:evenodd" xmlns:xlink="http://www.w3.org/1999/xlink">
<g><path style="opacity:0.902" fill="#fefffe" d="M 211.5,0.5 C 319.191,-0.261922 426.857,0.904745 534.5,4C 554.553,18.3836 572.386,35.2169 588,54.5C 595.052,63.2183 601.719,72.2183 608,81.5C 610.557,85.9447 612.557,90.6113 614,95.5C 614.667,105.833 614.667,116.167 614,126.5C 609.272,156.898 592.105,176.398 562.5,185C 534.555,187.278 513.389,176.445 499,152.5C 496.072,146.048 493.738,139.382 492,132.5C 483.08,169.546 459.58,187.046 421.5,185C 393.139,178.638 376.306,161.138 371,132.5C 360.7,169.791 336.2,187.291 297.5,185C 268.783,178.616 250.949,161.116 244,132.5C 234.698,172.072 209.864,189.238 169.5,184C 144.305,176.137 128.805,159.304 123,133.5C 115.62,161.547 97.7863,178.714 69.5,185C 42.7883,186.394 22.6216,175.56 9,152.5C 2.09837,139.537 -0.734966,125.703 0.5,111C -1.05115,100.31 1.11552,90.4763 7,81.5C 23.5802,56.91 43.0802,34.7433 65.5,15C 70.5,11.3333 75.5,7.66667 80.5,4C 124.315,2.33129 167.981,1.16463 211.5,0.5 Z"/></g>
<g><path style="opacity:0.902" fill="#fdfdfd" d="M 120.5,169.5 C 142.005,201.387 171.338,211.554 208.5,200C 223.726,193.774 235.559,183.607 244,169.5C 261.75,196.768 286.917,208.268 319.5,204C 342.303,200.853 359.47,189.353 371,169.5C 393.586,202.139 423.752,211.972 461.5,199C 475.406,192.478 486.24,182.645 494,169.5C 509.998,194.582 532.831,205.915 562.5,203.5C 563.947,210.754 564.78,218.087 565,225.5C 568.728,290.136 569.395,354.802 567,419.5C 565.827,445.055 562.827,470.388 558,495.5C 555.494,508.69 550.827,521.023 544,532.5C 542.786,534.049 541.286,535.215 539.5,536C 489.233,544.903 438.566,549.903 387.5,551C 297.302,554.68 207.302,552.014 117.5,543C 102.666,541.195 87.9995,538.528 73.5,535C 69.4553,530.418 66.2886,525.251 64,519.5C 55.3345,492.175 50.3345,464.175 49,435.5C 45.1126,359.447 45.9459,283.447 51.5,207.5C 51.8333,206.167 52.1667,204.833 52.5,203.5C 82.1651,206.001 104.832,194.667 120.5,169.5 Z"/></g>
<g><path style="opacity:0.902" fill="#000000" d="M 240.5,249.5 C 241.585,251.587 243.251,252.92 245.5,253.5C 248.3,259.137 252.8,261.47 259,260.5C 291.167,257.84 323.334,257.84 355.5,260.5C 361.658,260.854 366.325,258.354 369.5,253C 389.81,237.623 412.477,232.957 437.5,239C 441.631,240.235 445.631,241.735 449.5,243.5C 451.147,245.326 453.147,246.66 455.5,247.5C 456.262,249.262 457.596,250.262 459.5,250.5C 461.5,253.167 463.833,255.5 466.5,257.5C 466.5,258.167 466.833,258.5 467.5,258.5C 468.08,260.749 469.413,262.415 471.5,263.5C 472.433,266.37 474.1,268.704 476.5,270.5C 477.774,273.76 479.44,276.76 481.5,279.5C 482.992,283.818 484.992,287.818 487.5,291.5C 493.883,306.815 499.383,322.482 504,338.5C 511.704,366.995 519.537,395.328 527.5,423.5C 527.42,426.781 528.087,429.781 529.5,432.5C 531.3,443.767 531.8,455.101 531,466.5C 529.74,473.02 526.906,478.687 522.5,483.5C 519.996,484.584 517.663,485.917 515.5,487.5C 485.586,495.447 457.919,490.781 432.5,473.5C 428.5,468.833 424.167,464.5 419.5,460.5C 409.713,446.805 404.713,431.471 404.5,414.5C 400.958,414.187 397.625,414.521 394.5,415.5C 385.968,416.002 377.634,417.002 369.5,418.5C 316.36,422.17 263.36,420.836 210.5,414.5C 210.326,432.023 204.993,447.689 194.5,461.5C 190.167,465.167 186.167,469.167 182.5,473.5C 179.883,474.786 177.55,476.453 175.5,478.5C 171.182,479.992 167.182,481.992 163.5,484.5C 143.215,491.791 122.548,493.124 101.5,488.5C 99.1515,486.659 96.4848,485.326 93.5,484.5C 92.1667,482.5 90.5,480.833 88.5,479.5C 86.7875,475.422 85.1209,471.422 83.5,467.5C 82.7514,459.626 82.918,451.626 84,443.5C 87.542,425.333 91.7087,407.333 96.5,389.5C 97.9238,387.485 98.5905,385.152 98.5,382.5C 106.196,352.407 115.529,322.74 126.5,293.5C 129.674,288.484 132.341,283.151 134.5,277.5C 138.807,270.536 143.474,263.869 148.5,257.5C 150.833,255.833 152.833,253.833 154.5,251.5C 166.598,241.297 180.764,236.297 197,236.5C 213.032,236.125 227.532,240.459 240.5,249.5 Z"/></g>
<g><path style="opacity:0.902" fill="#848181" d="M 449.5,243.5 C 452.198,243.845 454.198,245.178 455.5,247.5C 453.147,246.66 451.147,245.326 449.5,243.5 Z"/></g>
<g><path style="opacity:0.902" fill="#9e9696" d="M 459.5,250.5 C 462.833,251.833 465.167,254.167 466.5,257.5C 463.833,255.5 461.5,253.167 459.5,250.5 Z"/></g>
<g><path style="opacity:0.902" fill="#7d7c7c" d="M 240.5,249.5 C 242.749,250.08 244.415,251.413 245.5,253.5C 243.251,252.92 241.585,251.587 240.5,249.5 Z"/></g>
<g><path style="opacity:0.902" fill="#898585" d="M 154.5,251.5 C 152.833,253.833 150.833,255.833 148.5,257.5C 149.5,254.5 151.5,252.5 154.5,251.5 Z"/></g>
<g><path style="opacity:0.902" fill="#817f7f" d="M 467.5,258.5 C 469.587,259.585 470.92,261.251 471.5,263.5C 469.413,262.415 468.08,260.749 467.5,258.5 Z"/></g>
<g><path style="opacity:0.902" fill="#838080" d="M 471.5,263.5 C 473.9,265.296 475.567,267.63 476.5,270.5C 474.1,268.704 472.433,266.37 471.5,263.5 Z"/></g>
<g><path style="opacity:0.902" fill="#838080" d="M 481.5,279.5 C 484.54,282.914 486.54,286.914 487.5,291.5C 484.992,287.818 482.992,283.818 481.5,279.5 Z"/></g>
<g><path style="opacity:0.902" fill="#807e7e" d="M 134.5,277.5 C 132.341,283.151 129.674,288.484 126.5,293.5C 128.126,287.581 130.793,282.247 134.5,277.5 Z"/></g>
<g><path style="opacity:0.902" fill="#a39797" d="M 311.5,297.5 C 309.956,297.297 308.622,296.63 307.5,295.5C 306.378,296.63 305.044,297.297 303.5,297.5C 306.167,293.5 308.833,293.5 311.5,297.5 Z"/></g>
<g><path style="opacity:0.902" fill="#fefefe" d="M 311.5,297.5 C 311.833,298.5 312.5,299.167 313.5,299.5C 318.89,305.892 324.89,311.559 331.5,316.5C 334.5,318.833 337.167,321.5 339.5,324.5C 345.109,331.778 351.442,338.444 358.5,344.5C 359.757,347.427 361.757,349.761 364.5,351.5C 365.08,353.749 366.413,355.415 368.5,356.5C 369.242,358.426 370.242,360.259 371.5,362C 366.845,362.499 362.179,362.666 357.5,362.5C 353.833,362.5 350.167,362.5 346.5,362.5C 343.375,361.521 340.042,361.187 336.5,361.5C 336.809,372.248 336.476,382.915 335.5,393.5C 316.833,393.5 298.167,393.5 279.5,393.5C 278.524,382.915 278.191,372.248 278.5,361.5C 272.31,361.177 266.31,361.51 260.5,362.5C 259.5,362.5 258.5,362.5 257.5,362.5C 252.381,363.103 247.715,362.436 243.5,360.5C 244.906,360.027 245.573,359.027 245.5,357.5C 247.587,356.415 248.92,354.749 249.5,352.5C 252.243,350.761 254.243,348.427 255.5,345.5C 262.891,339.111 269.557,332.111 275.5,324.5C 277.5,323.167 279.167,321.5 280.5,319.5C 288.445,313.224 295.778,306.224 302.5,298.5C 303.167,298.5 303.5,298.167 303.5,297.5C 305.044,297.297 306.378,296.63 307.5,295.5C 308.622,296.63 309.956,297.297 311.5,297.5 Z"/></g>
<g><path style="opacity:0.902" fill="#7e7a7a" d="M 313.5,299.5 C 320.11,304.441 326.11,310.108 331.5,316.5C 324.89,311.559 318.89,305.892 313.5,299.5 Z"/></g>
<g><path style="opacity:0.902" fill="#9c9191" d="M 302.5,298.5 C 295.778,306.224 288.445,313.224 280.5,319.5C 287.222,311.776 294.555,304.776 302.5,298.5 Z"/></g>
<g><path style="opacity:0.902" fill="#8c8585" d="M 339.5,324.5 C 346.558,330.556 352.891,337.222 358.5,344.5C 351.442,338.444 345.109,331.778 339.5,324.5 Z"/></g>
<g><path style="opacity:0.902" fill="#8a8484" d="M 275.5,324.5 C 269.557,332.111 262.891,339.111 255.5,345.5C 261.443,337.889 268.109,330.889 275.5,324.5 Z"/></g>
<g><path style="opacity:0.902" fill="#888282" d="M 255.5,345.5 C 254.243,348.427 252.243,350.761 249.5,352.5C 250.757,349.573 252.757,347.239 255.5,345.5 Z"/></g>
<g><path style="opacity:0.902" fill="#847f7f" d="M 358.5,344.5 C 361.243,346.239 363.243,348.573 364.5,351.5C 361.757,349.761 359.757,347.427 358.5,344.5 Z"/></g>
<g><path style="opacity:0.902" fill="#7a7676" d="M 249.5,352.5 C 248.92,354.749 247.587,356.415 245.5,357.5C 246.08,355.251 247.413,353.585 249.5,352.5 Z"/></g>
<g><path style="opacity:0.902" fill="#817c7c" d="M 364.5,351.5 C 366.587,352.585 367.92,354.251 368.5,356.5C 366.413,355.415 365.08,353.749 364.5,351.5 Z"/></g>
<g><path style="opacity:0.902" fill="#7c7777" d="M 245.5,357.5 C 245.573,359.027 244.906,360.027 243.5,360.5C 243.427,358.973 244.094,357.973 245.5,357.5 Z"/></g>
<g><path style="opacity:0.902" fill="#716f6f" d="M 260.5,362.5 C 266.31,361.51 272.31,361.177 278.5,361.5C 278.191,372.248 278.524,382.915 279.5,393.5C 277.525,383.554 276.858,373.221 277.5,362.5C 271.833,362.5 266.167,362.5 260.5,362.5 Z"/></g>
<g><path style="opacity:0.902" fill="#696868" d="M 346.5,362.5 C 343.5,362.5 340.5,362.5 337.5,362.5C 338.142,373.221 337.475,383.554 335.5,393.5C 336.476,382.915 336.809,372.248 336.5,361.5C 340.042,361.187 343.375,361.521 346.5,362.5 Z"/></g>
<g><path style="opacity:0.902" fill="#6c6b6b" d="M 243.5,360.5 C 247.715,362.436 252.381,363.103 257.5,362.5C 252.695,363.487 247.695,363.821 242.5,363.5C 242.263,362.209 242.596,361.209 243.5,360.5 Z"/></g>
<g><path style="opacity:0.902" fill="#6f6e6e" d="M 368.5,356.5 C 371.112,358.052 372.445,360.386 372.5,363.5C 367.305,363.821 362.305,363.487 357.5,362.5C 362.179,362.666 366.845,362.499 371.5,362C 370.242,360.259 369.242,358.426 368.5,356.5 Z"/></g>
<g><path style="opacity:0.902" fill="#838181" d="M 98.5,382.5 C 98.5905,385.152 97.9238,387.485 96.5,389.5C 96.4095,386.848 97.0762,384.515 98.5,382.5 Z"/></g>
<g><path style="opacity:0.902" fill="#aca5a5" d="M 394.5,415.5 C 386.417,417.436 378.084,418.436 369.5,418.5C 377.634,417.002 385.968,416.002 394.5,415.5 Z"/></g>
<g><path style="opacity:0.902" fill="#898686" d="M 527.5,423.5 C 528.913,426.219 529.58,429.219 529.5,432.5C 528.087,429.781 527.42,426.781 527.5,423.5 Z"/></g>
<g><path style="opacity:0.902" fill="#888585" d="M 194.5,461.5 C 191.5,466.5 187.5,470.5 182.5,473.5C 186.167,469.167 190.167,465.167 194.5,461.5 Z"/></g>
<g><path style="opacity:0.902" fill="#828080" d="M 419.5,460.5 C 424.167,464.5 428.5,468.833 432.5,473.5C 427.167,470.167 422.833,465.833 419.5,460.5 Z"/></g>
<g><path style="opacity:0.902" fill="#928e8e" d="M 83.5,467.5 C 85.1209,471.422 86.7875,475.422 88.5,479.5C 85.2097,476.244 83.543,472.244 83.5,467.5 Z"/></g>
<g><path style="opacity:0.902" fill="#9e9696" d="M 88.5,479.5 C 90.5,480.833 92.1667,482.5 93.5,484.5C 90.8333,483.833 89.1667,482.167 88.5,479.5 Z"/></g>
<g><path style="opacity:0.902" fill="#828080" d="M 175.5,478.5 C 172.086,481.54 168.086,483.54 163.5,484.5C 167.182,481.992 171.182,479.992 175.5,478.5 Z"/></g>
<g><path style="opacity:0.902" fill="#858282" d="M 522.5,483.5 C 520.948,486.112 518.614,487.445 515.5,487.5C 517.663,485.917 519.996,484.584 522.5,483.5 Z"/></g>
<g><path style="opacity:0.902" fill="#828080" d="M 93.5,484.5 C 96.4848,485.326 99.1515,486.659 101.5,488.5C 98.2459,488.206 95.5792,486.873 93.5,484.5 Z"/></g>
</svg>
