<?xml version="1.0" encoding="UTF-8"?>
<!DOCTYPE svg PUBLIC "-//W3C//DTD SVG 1.1//EN" "http://www.w3.org/Graphics/SVG/1.1/DTD/svg11.dtd">
<svg xmlns="http://www.w3.org/2000/svg" version="1.1" width="616px" height="556px" style="shape-rendering:geometricPrecision; text-rendering:geometricPrecision; image-rendering:optimizeQuality; fill-rule:evenodd; clip-rule:evenodd" xmlns:xlink="http://www.w3.org/1999/xlink">
<g><path style="opacity:1" fill="#020202" d="M 371.5,132.5 C 371.66,130.801 371.494,129.134 371,127.5C 370.023,129.74 369.523,132.073 369.5,134.5C 363.659,160.178 347.992,176.678 322.5,184C 288.193,189.264 263.36,176.431 248,145.5C 246.512,141.213 245.178,136.88 244,132.5C 234.698,172.072 209.864,189.238 169.5,184C 144.196,176.21 128.862,159.377 123.5,133.5C 123.662,131.473 123.495,129.473 123,127.5C 121.798,129.677 121.298,132.011 121.5,134.5C 117.605,155.571 105.938,170.738 86.5,180C 49.2915,191.653 22.1248,179.82 5,144.5C 3.79768,141.226 2.79768,137.893 2,134.5C 0.475925,121.204 0.142592,107.871 1,94.5C 3.96939,86.558 7.96939,79.2246 13,72.5C 31.7926,46.0405 54.2926,23.2072 80.5,4C 231.831,-0.636793 383.164,-0.636793 534.5,4C 554.553,18.3836 572.386,35.2169 588,54.5C 595.052,63.2183 601.719,72.2183 608,81.5C 610.557,85.9447 612.557,90.6113 614,95.5C 614.667,105.833 614.667,116.167 614,126.5C 609.272,156.898 592.105,176.398 562.5,185C 534.555,187.278 513.389,176.445 499,152.5C 496.072,146.048 493.738,139.382 492,132.5C 486.677,158.825 471.177,175.991 445.5,184C 412.779,189.391 389.279,177.224 375,147.5C 373.042,142.671 371.876,137.671 371.5,132.5 Z"/></g>
<g><path style="opacity:1" fill="#8a8a8a" d="M 371.5,132.5 C 370.833,133.167 370.167,133.833 369.5,134.5C 369.523,132.073 370.023,129.74 371,127.5C 371.494,129.134 371.66,130.801 371.5,132.5 Z"/></g>
<g><path style="opacity:1" fill="#848484" d="M 123.5,133.5 C 122.833,133.833 122.167,134.167 121.5,134.5C 121.298,132.011 121.798,129.677 123,127.5C 123.495,129.473 123.662,131.473 123.5,133.5 Z"/></g>
<g><path style="opacity:1" fill="#020202" d="M 561.5,204.5 C 562.167,205.167 562.833,205.833 563.5,206.5C 569.037,282.442 569.87,358.442 566,434.5C 564.713,463.512 559.713,491.845 551,519.5C 548.711,525.251 545.545,530.418 541.5,535C 513.839,541.125 485.839,545.125 457.5,547C 344.041,555.39 230.708,554.057 117.5,543C 102.666,541.195 87.9995,538.528 73.5,535C 69.4553,530.418 66.2886,525.251 64,519.5C 57.237,499.352 52.9037,478.686 51,457.5C 49.7241,445.189 48.7241,432.856 48,420.5C 45.5942,355.468 46.2609,290.468 50,225.5C 50.2196,218.087 51.0529,210.754 52.5,203.5C 82.169,205.915 105.002,194.582 121,169.5C 142.301,201.469 171.467,211.635 208.5,200C 223.726,193.774 235.559,183.607 244,169.5C 261.75,196.768 286.917,208.268 319.5,204C 342.303,200.853 359.47,189.353 371,169.5C 393.586,202.139 423.752,211.972 461.5,199C 475.406,192.478 486.24,182.645 494,169.5C 509.737,193.954 532.237,205.62 561.5,204.5 Z"/></g>
<g><path style="opacity:1" fill="#808080" d="M 561.5,204.5 C 561.56,203.957 561.893,203.624 562.5,203.5C 563.386,204.325 563.719,205.325 563.5,206.5C 562.833,205.833 562.167,205.167 561.5,204.5 Z"/></g>
<g><path style="opacity:1" fill="#fefefe" d="M 185.5,235.5 C 211.943,232.178 234.276,240.012 252.5,259C 271.643,258.356 290.809,257.856 310,257.5C 327.525,257.741 345.025,258.241 362.5,259C 383.61,237.385 408.943,230.385 438.5,238C 456.989,244.82 470.823,256.986 480,274.5C 489.425,292.441 497.092,311.108 503,330.5C 512.629,365.424 521.963,400.424 531,435.5C 533.277,448.6 532.944,461.6 530,474.5C 524.55,485.155 515.717,490.655 503.5,491C 469.875,496.239 441.709,486.405 419,461.5C 408.756,447.532 403.59,431.865 403.5,414.5C 339.555,423.456 275.555,423.789 211.5,415.5C 208.455,455.387 187.455,480.221 148.5,490C 133.499,493.333 118.499,493.333 103.5,490C 91.7796,486.947 84.9463,479.447 83,467.5C 81.7498,453.33 82.7498,439.33 86,425.5C 93.3296,398.183 100.663,370.849 108,343.5C 114.877,317.528 124.877,292.862 138,269.5C 149.048,251.257 164.882,239.924 185.5,235.5 Z"/></g>
<g><path style="opacity:1" fill="#030303" d="M 306.5,295.5 C 308.932,296.75 311.266,298.25 313.5,300C 328,314.5 342.5,329 357,343.5C 362.195,349.395 367.029,355.561 371.5,362C 359.841,362.001 348.174,361.834 336.5,361.5C 336.666,371.839 336.5,382.172 336,392.5C 331.748,393.152 327.415,393.486 323,393.5C 308.499,392.438 293.999,392.272 279.5,393C 278.513,382.582 278.18,372.082 278.5,361.5C 266.83,361.963 255.163,362.13 243.5,362C 247.879,356.076 252.379,350.243 257,344.5C 273.395,327.938 289.895,311.604 306.5,295.5 Z"/></g>
</svg>
