<?xml version="1.0" encoding="UTF-8"?>
<!DOCTYPE svg PUBLIC "-//W3C//DTD SVG 1.1//EN" "http://www.w3.org/Graphics/SVG/1.1/DTD/svg11.dtd">
<svg xmlns="http://www.w3.org/2000/svg" version="1.1" width="963px" height="675px" style="shape-rendering:geometricPrecision; text-rendering:geometricPrecision; image-rendering:optimizeQuality; fill-rule:evenodd; clip-rule:evenodd" xmlns:xlink="http://www.w3.org/1999/xlink">
<g><path style="opacity:0.902" fill="#fefefe" d="M 397.5,42.5 C 500.892,41.2378 604.226,43.0712 707.5,48C 739.37,49.4729 771.036,52.8062 802.5,58C 852.806,71.3135 881.64,103.813 889,155.5C 895.978,200.563 899.978,245.897 901,291.5C 902.724,349.601 901.058,407.601 896,465.5C 893.924,493.288 889.258,520.621 882,547.5C 869.346,579.487 846.846,601.321 814.5,613C 788.835,618.958 762.835,622.625 736.5,624C 623.269,630.967 509.935,633.301 396.5,631C 331.725,630.252 267.059,627.252 202.5,622C 182.835,620.524 163.501,617.191 144.5,612C 102.636,594.782 78.8025,563.615 73,518.5C 66.0225,473.437 62.0225,428.103 61,382.5C 59.0587,321.034 61.0587,259.701 67,198.5C 69.1775,174.101 73.5108,150.101 80,126.5C 94.4773,89.6879 120.977,66.8545 159.5,58C 185.655,53.4844 211.989,50.4844 238.5,49C 291.625,45.9571 344.625,43.7904 397.5,42.5 Z M 396.5,211.5 C 469.275,253.057 541.942,294.89 614.5,337C 542.167,378.833 469.833,420.667 397.5,462.5C 396.5,378.836 396.167,295.169 396.5,211.5 Z"/></g>
</svg>
