<?xml version="1.0" encoding="UTF-8"?>
<!DOCTYPE svg PUBLIC "-//W3C//DTD SVG 1.1//EN" "http://www.w3.org/Graphics/SVG/1.1/DTD/svg11.dtd">
<svg xmlns="http://www.w3.org/2000/svg" version="1.1" width="841px" height="589px" style="shape-rendering:geometricPrecision; text-rendering:geometricPrecision; image-rendering:optimizeQuality; fill-rule:evenodd; clip-rule:evenodd" xmlns:xlink="http://www.w3.org/1999/xlink">
<g><path style="opacity:0.902" fill="#fefefe" d="M 336.5,-0.5 C 392.167,-0.5 447.833,-0.5 503.5,-0.5C 571.797,0.641634 640.131,4.14163 708.5,10C 729.311,11.3609 749.311,16.0276 768.5,24C 803.373,43.2081 823.206,72.7081 828,112.5C 834.824,157.74 838.991,203.073 840.5,248.5C 840.5,278.833 840.5,309.167 840.5,339.5C 838.991,384.927 834.824,430.26 828,475.5C 821.707,521.776 796.873,553.276 753.5,570C 738.715,573.853 723.715,576.52 708.5,578C 640.463,583.833 572.463,587.333 504.5,588.5C 448.167,588.5 391.833,588.5 335.5,588.5C 267.537,587.333 199.537,583.833 131.5,578C 110.689,576.639 90.6891,571.972 71.5,564C 36.6269,544.792 16.7936,515.292 12,475.5C 5.17575,430.26 1.00909,384.927 -0.5,339.5C -0.5,309.167 -0.5,278.833 -0.5,248.5C 1.00909,203.073 5.17575,157.74 12,112.5C 18.2934,66.2243 43.1268,34.7243 86.5,18C 101.285,14.1469 116.285,11.4802 131.5,10C 199.869,4.14163 268.203,0.641634 336.5,-0.5 Z M 335.5,168.5 C 408.275,210.057 480.942,251.89 553.5,294C 481.167,335.833 408.833,377.667 336.5,419.5C 335.5,335.836 335.167,252.169 335.5,168.5 Z"/></g>
</svg>
